<?xml version="1.0" encoding="utf-8"?>
<!-- Generator: Adobe Illustrator 22.0.1, SVG Export Plug-In . SVG Version: 6.00 Build 0)  -->
<svg version="1.1" id="Layer_1" xmlns="http://www.w3.org/2000/svg" xmlns:xlink="http://www.w3.org/1999/xlink" x="0px" y="0px"
	 viewBox="0 0 810 210" style="enable-background:new 0 0 810 210;" xml:space="preserve">
<style type="text/css">
	.st0{fill:#303030;}
	.st1{fill:#E24449;}
</style>
<g>
	<path class="st0" d="M296.4,65.2h13.9v81.8h-13.9v-29.3h-28.6v29.3h-14V65.2h14v38.6h28.6V65.2z M387.3,146.9h-14.6l-8.8-27h-18.5
		l-8.5,27h-14.6l26.2-81.8h12.6L387.3,146.9z M349.8,108.4h10.2l-5.1-19.2L349.8,108.4z M456.6,65.2H469v81.8h-14V90.9l-20.9,28.5
		l-20.8-28.2v55.7h-14V65.2h12.4l22.4,30.6L456.6,65.2z M535.3,112.2c-1.6-2.9-3.7-5.3-6.2-7.2c-2.5-1.9-5.3-3.5-8.4-4.7
		c-3-1.2-6.1-2.3-9.2-3.3c-1.4-0.4-3-0.9-4.7-1.5c-1.6-0.5-3.2-1.2-4.6-1.9c-1.4-0.7-2.5-1.6-3.5-2.6c-0.9-0.9-1.3-2-1.3-3.4
		c0-2.3,1.1-4.3,3.3-6c2.2-1.8,5.3-2.6,9-2.6c3.5,0,6.2,0.9,8.1,2.6c1.9,1.8,3.2,4.2,3.8,7.3l0.1,0.6h14.5l0-0.8
		c-0.1-1.9-0.6-4.2-1.6-6.9c-1-2.7-2.6-5.3-4.7-7.7c-2.1-2.4-4.8-4.5-8.1-6.3c-3.3-1.7-7.3-2.6-12.1-2.6c-3.5,0-7,0.6-10.2,1.8
		c-3.2,1.2-6.1,2.9-8.6,4.9c-2.5,2.1-4.5,4.5-6,7.3c-1.5,2.8-2.2,5.8-2.2,9c0,3.3,0.8,6.2,2.5,8.6c1.6,2.4,3.7,4.4,6.1,6.2
		c2.4,1.7,5,3.2,7.8,4.3c2.8,1.1,5.3,2.1,7.6,2.9l6.3,2.3c2,0.7,3.8,1.6,5.3,2.6c1.5,0.9,2.7,2.1,3.6,3.4c0.9,1.3,1.3,2.8,1.3,4.6
		c0,3.2-1.2,5.6-3.6,7.3c-2.5,1.7-5.9,2.6-10,2.6c-2.3,0-4.3-0.4-6-1.3c-1.8-0.9-3.3-2-4.5-3.4c-1.2-1.4-2.2-3.1-2.8-5
		c-0.7-1.9-1-4-1-6.2v-0.7H481v0.7c0,4.8,0.8,9,2.4,12.7c1.6,3.7,3.8,6.8,6.5,9.4c2.7,2.6,5.8,4.5,9.3,5.9c3.4,1.3,7,2,10.7,2
		c3.6,0,7.1-0.5,10.4-1.6c3.3-1.1,6.3-2.6,8.9-4.6c2.6-2,4.7-4.5,6.2-7.5c1.5-3,2.3-6.4,2.3-10.2
		C537.7,118.8,536.9,115.1,535.3,112.2z M549.7,79.2v-14h56.7v14H585v67.8h-13.9V79.2H549.7z M618.4,65.2H663v14h-30.5v24.5h23.1
		v13.9h-23.1v15.3H663v14h-44.6V65.2z M674.9,65.2h25.7c4.2,0,8,0.6,11.5,1.7c3.5,1.1,6.4,2.8,8.8,5c2.4,2.2,4.3,4.9,5.6,8.2
		c1.3,3.3,2,7,2,11.2c0,4.3-0.8,8.3-2.4,11.9c-1.6,3.7-3.9,6.3-7,7.9c0.9,0.4,1.9,0.9,3,1.6c1.1,0.7,2.1,1.6,3,2.9
		c0.9,1.2,1.7,2.9,2.3,5c0.6,2.1,0.9,4.7,0.9,7.9v18.6h-14v-18.6c0-2.1-0.4-3.8-1.1-5.2c-0.7-1.4-1.7-2.5-2.9-3.3
		c-1.2-0.8-2.5-1.4-4-1.8c-1.5-0.4-3.1-0.5-4.6-0.5H689v29.3h-14V65.2z M714.9,91.1c0-4.4-1.4-7.6-4.1-9.6s-6.1-3-10-3H689v25.6
		h11.8c4.5,0,8-1,10.5-3.1C713.7,98.9,714.9,95.6,714.9,91.1z"/>
	<path class="st1" d="M772.2,118.5l-16.8,28.4h-14.8l24.3-40.8l-24.3-41h16.4l16.9,28.5l16.8-28.5h14.8L781.2,106l24.3,40.9h-16.4
		L772.2,118.5z"/>
	<g>
		<path class="st0" d="M77.1,86.1c3.3,0,6-2.7,6-5.9c0-3.3-2.7-5.9-6-5.9c-3.2,0-5.9,2.6-5.9,5.9C71.2,83.5,73.9,86.1,77.1,86.1z"/>
		<path class="st0" d="M156.2,86.1c3.2,0,5.9-2.7,5.9-5.9c0-3.3-2.7-5.9-5.9-5.9c-3.3,0-6,2.6-6,5.9
			C150.2,83.5,152.9,86.1,156.2,86.1z"/>
		<path class="st0" d="M203.6,82.4c-0.2-1.2-0.5-2.4-0.7-3.5c-1-4.1-2.1-8-3.4-11.6c18.7-25.8,4.3-59.2-7.6-59.6
			c-8.6-0.3-20.1,8.7-27.3,15.4c-0.1,0-0.1-0.1-0.1-0.1C142.1,9.3,118.7,9.7,116.6,9.8c-2-0.1-25.4-0.4-47.8,13.3
			c-0.1,0-0.1,0.1-0.1,0.1C61.5,16.4,50,7.4,41.4,7.7c-11.9,0.4-26.3,33.7-7.6,59.6c-1.3,3.6-2.4,7.5-3.4,11.6
			c-0.2,1.1-0.5,2.3-0.7,3.5c-7.9,3.3-29.9,15.3-22.8,46c10.6,46,71.7,74.5,109.7,74.5v0c0,0,0,0,0,0s0,0,0,0v0
			c38,0,99.1-28.4,109.7-74.5C233.5,97.7,211.5,85.7,203.6,82.4z M167.5,64.2c5.6,6.7,3.3,16.8-3.3,22.4c-6.7,5.5-15.9,5.4-21.5-1.2
			c-5.6-6.7-5.2-15.8,1.4-21.4C150.8,58.4,162,57.5,167.5,64.2z M190,24.2c5.5,1.9,7.2,12.4,6.5,16.6c-0.3,1.9-2.8,5.4-5.4,8.7l0,0
			c-4.7-7.7-10.2-14-16.2-19C180.8,24.6,185.9,22.7,190,24.2z M116.4,18.6L116.4,18.6c0,0,0.1,0,0.2,0c0.1,0,0.2,0,0.2,0v0
			c3.1-0.1,20.5-0.1,38.1,8.9c0,0,0,0,0,0c-8.6,5.2-20,15.3-22.7,33.3c-2.7,18,2.1,28.8,4.5,34.6c2,4.8,2.7,8.4,2.1,12.8
			c-1,6.7-6.6,13.1-22.2,13.1c-15.6,0-21.3-6.4-22.3-13.1c-0.6-4.4,0.2-8,2.1-12.8c2.4-5.8,7.3-16.7,4.5-34.6
			c-2.7-18-14.2-28.1-22.7-33.3C96,18.6,113.4,18.5,116.4,18.6z M65.8,64.2c5.5-6.7,16.7-5.8,23.4-0.2c6.7,5.6,7,14.7,1.4,21.4
			c-5.5,6.7-14.8,6.8-21.5,1.2C62.5,81,60.2,70.9,65.8,64.2z M43.3,24.2c4.1-1.5,9.2,0.4,15.1,6.4c-5.9,5-11.5,11.2-16.2,19l0,0
			c-2.6-3.3-5.1-6.8-5.4-8.7C36.1,36.7,37.7,26.1,43.3,24.2z M217.7,126.4c-9.5,41.3-65.9,67.6-101.1,67.6
			c-35.2,0-91.5-26.2-101.1-67.6C9,97.8,33.8,90.3,34.9,90l2.3-0.7c9.8,6.5,14.2,18.5,12,30.3c-0.8,4.6-0.4,10.7,4.2,17.4
			c1.1,1.5,2.3,3,3.6,4.4l2.1,0.7c16.2,5.3,28.8-0.7,33.3-5.9c0.8-0.9,1.7-1.7,2.7-2.4l0.8-0.5c2.9-1.8,6.2-2.7,9.5-2.7
			c4.2,0,8.2,1.5,11.3,4.1c3.1-2.6,7-4.1,11.2-4.1c3.3,0,6.6,1,9.5,2.7l0.6,0.4c1.1,0.8,2,1.5,2.8,2.4c4.6,5.4,17.3,11.2,33.4,6
			l2.1-0.7c1.3-1.4,2.6-2.9,3.6-4.4c4.5-6.7,5-12.7,4.2-17.4c-2.1-11.8,2.3-23.7,12-30.3c0,0,0,0,0,0l0,0l2.3,0.7
			C199.5,90.3,224.3,97.8,217.7,126.4z"/>
		<path class="st0" d="M136.5,172.1c-1.5-0.5-3.2,0.2-3.7,1.8c-1,2.7-3.5,4.5-6.4,4.5c-3.7,0-6.7-2.9-6.7-6.7v-3h-2.9h-0.4h-2.9v3
			c0,3.8-2.9,6.7-6.7,6.7c-2.9,0-5.4-1.8-6.4-4.5c-0.5-1.5-2.2-2.3-3.7-1.8c-1.5,0.5-2.4,2.2-1.8,3.7c1.8,5.1,6.5,8.5,12,8.5
			c3.9,0,7.4-1.8,9.7-4.6c2.3,2.8,5.8,4.6,9.7,4.6c5.4,0,10.2-3.4,12-8.5C138.9,174.3,138,172.6,136.5,172.1z"/>
		<path class="st0" d="M136.4,140.1c-0.6-0.7-1.3-1.2-2.1-1.7c-0.1-0.1-0.1-0.1-0.1-0.1c-1.8-1.1-4-1.8-6.4-1.8
			c-5.2,0-9.6,3.3-11.3,7.9c-1.7-4.6-6.1-7.9-11.3-7.9c-2.3,0-4.5,0.7-6.4,1.8c0,0,0,0-0.1,0.1c-0.8,0.5-1.5,1-2.1,1.7
			c-5.5,6.4-20.4,13.9-39.7,7.7c0,0,12,33,49.7,15.2c0,0,5.3-2.7,8.4-7.6c0.6-0.8,1-1.8,1.4-2.7c0.4,1,0.8,1.9,1.4,2.7
			c3.1,4.8,8.4,7.6,8.4,7.6c37.7,17.8,49.7-15.2,49.7-15.2C156.8,154,142,146.5,136.4,140.1z"/>
	</g>
</g>
</svg>
